<mxfile host="app.diagrams.net" modified="2024-04-26T03:17:29.478Z" agent="Mozilla/5.0 (Macintosh; Intel Mac OS X 10_15_7) AppleWebKit/537.36 (KHTML, like Gecko) Chrome/122.0.0.0 Safari/537.36" version="24.2.5" etag="SYG-_XbdkGNa6oSufeL5" type="github">
  <diagram name="Page-1" id="0nMjPmMQ_xrqeUG6eVxS">
    <mxGraphModel>
      <root>
        <mxCell id="0" />
        <mxCell id="1" parent="0" />
      </root>
    </mxGraphModel>
  </diagram>
</mxfile>
